<mxfile host="app.diagrams.net" agent="Mozilla/5.0 (Windows NT 10.0; Win64; x64) AppleWebKit/537.36 (KHTML, like Gecko) Chrome/133.0.0.0 Safari/537.36 Edg/133.0.0.0" version="26.0.12">
  <diagram name="Página-1" id="Y0YSlrbNfmsmCdpH6sNc">
    <mxGraphModel dx="1699" dy="1646" grid="1" gridSize="10" guides="1" tooltips="1" connect="1" arrows="1" fold="1" page="1" pageScale="1" pageWidth="827" pageHeight="1169" math="0" shadow="0">
      <root>
        <mxCell id="0" />
        <mxCell id="1" parent="0" />
        <mxCell id="5tfjPZlzHDd08R5v4Q2B-1" style="edgeStyle=orthogonalEdgeStyle;rounded=0;orthogonalLoop=1;jettySize=auto;html=1;entryX=0.5;entryY=1;entryDx=0;entryDy=0;" edge="1" parent="1" source="5tfjPZlzHDd08R5v4Q2B-5" target="5tfjPZlzHDd08R5v4Q2B-18">
          <mxGeometry relative="1" as="geometry" />
        </mxCell>
        <mxCell id="5tfjPZlzHDd08R5v4Q2B-2" style="edgeStyle=orthogonalEdgeStyle;rounded=0;orthogonalLoop=1;jettySize=auto;html=1;entryX=0.5;entryY=1;entryDx=0;entryDy=0;" edge="1" parent="1" source="5tfjPZlzHDd08R5v4Q2B-5" target="5tfjPZlzHDd08R5v4Q2B-17">
          <mxGeometry relative="1" as="geometry" />
        </mxCell>
        <mxCell id="5tfjPZlzHDd08R5v4Q2B-3" style="edgeStyle=orthogonalEdgeStyle;rounded=0;orthogonalLoop=1;jettySize=auto;html=1;entryX=0.5;entryY=1;entryDx=0;entryDy=0;" edge="1" parent="1" source="5tfjPZlzHDd08R5v4Q2B-5" target="5tfjPZlzHDd08R5v4Q2B-14">
          <mxGeometry relative="1" as="geometry" />
        </mxCell>
        <mxCell id="5tfjPZlzHDd08R5v4Q2B-4" style="edgeStyle=orthogonalEdgeStyle;rounded=0;orthogonalLoop=1;jettySize=auto;html=1;exitX=0.5;exitY=0.5;exitDx=0;exitDy=0;exitPerimeter=0;" edge="1" parent="1" source="5tfjPZlzHDd08R5v4Q2B-5" target="5tfjPZlzHDd08R5v4Q2B-12">
          <mxGeometry relative="1" as="geometry" />
        </mxCell>
        <mxCell id="5tfjPZlzHDd08R5v4Q2B-5" value="Aluno" style="shape=umlActor;verticalLabelPosition=bottom;verticalAlign=top;html=1;outlineConnect=0;" vertex="1" parent="1">
          <mxGeometry x="-415" y="-410" width="30" height="60" as="geometry" />
        </mxCell>
        <mxCell id="5tfjPZlzHDd08R5v4Q2B-6" style="edgeStyle=orthogonalEdgeStyle;rounded=0;orthogonalLoop=1;jettySize=auto;html=1;" edge="1" parent="1" source="5tfjPZlzHDd08R5v4Q2B-10" target="5tfjPZlzHDd08R5v4Q2B-12">
          <mxGeometry relative="1" as="geometry" />
        </mxCell>
        <mxCell id="5tfjPZlzHDd08R5v4Q2B-7" value="" style="edgeStyle=orthogonalEdgeStyle;rounded=0;orthogonalLoop=1;jettySize=auto;html=1;" edge="1" parent="1" source="5tfjPZlzHDd08R5v4Q2B-10" target="5tfjPZlzHDd08R5v4Q2B-24">
          <mxGeometry relative="1" as="geometry" />
        </mxCell>
        <mxCell id="5tfjPZlzHDd08R5v4Q2B-8" style="edgeStyle=orthogonalEdgeStyle;rounded=0;orthogonalLoop=1;jettySize=auto;html=1;entryX=0.5;entryY=1;entryDx=0;entryDy=0;" edge="1" parent="1" source="5tfjPZlzHDd08R5v4Q2B-10" target="5tfjPZlzHDd08R5v4Q2B-21">
          <mxGeometry relative="1" as="geometry" />
        </mxCell>
        <mxCell id="5tfjPZlzHDd08R5v4Q2B-9" style="edgeStyle=orthogonalEdgeStyle;rounded=0;orthogonalLoop=1;jettySize=auto;html=1;" edge="1" parent="1" source="5tfjPZlzHDd08R5v4Q2B-10" target="5tfjPZlzHDd08R5v4Q2B-19">
          <mxGeometry relative="1" as="geometry" />
        </mxCell>
        <mxCell id="5tfjPZlzHDd08R5v4Q2B-10" value="Instrutor" style="shape=umlActor;verticalLabelPosition=bottom;verticalAlign=top;html=1;outlineConnect=0;" vertex="1" parent="1">
          <mxGeometry x="-370" y="-150" width="30" height="60" as="geometry" />
        </mxCell>
        <mxCell id="5tfjPZlzHDd08R5v4Q2B-11" value="Efetuar login" style="ellipse;whiteSpace=wrap;html=1;" vertex="1" parent="1">
          <mxGeometry x="-740" y="-310" width="120" height="80" as="geometry" />
        </mxCell>
        <mxCell id="5tfjPZlzHDd08R5v4Q2B-12" value="Usuário" style="shape=umlActor;verticalLabelPosition=bottom;verticalAlign=top;html=1;outlineConnect=0;" vertex="1" parent="1">
          <mxGeometry x="-540" y="-310" width="30" height="60" as="geometry" />
        </mxCell>
        <mxCell id="5tfjPZlzHDd08R5v4Q2B-13" style="edgeStyle=orthogonalEdgeStyle;rounded=0;orthogonalLoop=1;jettySize=auto;html=1;entryX=0.917;entryY=0.375;entryDx=0;entryDy=0;entryPerimeter=0;" edge="1" parent="1" source="5tfjPZlzHDd08R5v4Q2B-12" target="5tfjPZlzHDd08R5v4Q2B-11">
          <mxGeometry relative="1" as="geometry" />
        </mxCell>
        <mxCell id="5tfjPZlzHDd08R5v4Q2B-14" value="Visualizar Cardio" style="ellipse;whiteSpace=wrap;html=1;" vertex="1" parent="1">
          <mxGeometry x="-260" y="-584" width="120" height="80" as="geometry" />
        </mxCell>
        <mxCell id="5tfjPZlzHDd08R5v4Q2B-15" value="" style="edgeStyle=orthogonalEdgeStyle;rounded=0;orthogonalLoop=1;jettySize=auto;html=1;" edge="1" parent="1" source="5tfjPZlzHDd08R5v4Q2B-17" target="5tfjPZlzHDd08R5v4Q2B-25">
          <mxGeometry relative="1" as="geometry" />
        </mxCell>
        <mxCell id="5tfjPZlzHDd08R5v4Q2B-16" value="&amp;lt;&amp;lt;extends&amp;gt;&amp;gt;" style="edgeLabel;html=1;align=center;verticalAlign=middle;resizable=0;points=[];" vertex="1" connectable="0" parent="5tfjPZlzHDd08R5v4Q2B-15">
          <mxGeometry x="-0.25" relative="1" as="geometry">
            <mxPoint as="offset" />
          </mxGeometry>
        </mxCell>
        <mxCell id="5tfjPZlzHDd08R5v4Q2B-17" value="Visualizar Treino" style="ellipse;whiteSpace=wrap;html=1;" vertex="1" parent="1">
          <mxGeometry x="-415" y="-610" width="120" height="80" as="geometry" />
        </mxCell>
        <mxCell id="5tfjPZlzHDd08R5v4Q2B-18" value="Visualizar Gráfico de Evoução" style="ellipse;whiteSpace=wrap;html=1;" vertex="1" parent="1">
          <mxGeometry x="-560" y="-590" width="120" height="80" as="geometry" />
        </mxCell>
        <mxCell id="5tfjPZlzHDd08R5v4Q2B-19" value="Manter Aluno" style="ellipse;whiteSpace=wrap;html=1;" vertex="1" parent="1">
          <mxGeometry x="-415" y="-30" width="120" height="80" as="geometry" />
        </mxCell>
        <mxCell id="5tfjPZlzHDd08R5v4Q2B-20" style="edgeStyle=orthogonalEdgeStyle;rounded=0;orthogonalLoop=1;jettySize=auto;html=1;" edge="1" parent="1" source="5tfjPZlzHDd08R5v4Q2B-21" target="5tfjPZlzHDd08R5v4Q2B-5">
          <mxGeometry relative="1" as="geometry" />
        </mxCell>
        <mxCell id="5tfjPZlzHDd08R5v4Q2B-21" value="Manter Cardio" style="ellipse;whiteSpace=wrap;html=1;" vertex="1" parent="1">
          <mxGeometry x="-230" y="-330" width="120" height="80" as="geometry" />
        </mxCell>
        <mxCell id="5tfjPZlzHDd08R5v4Q2B-22" style="edgeStyle=orthogonalEdgeStyle;rounded=0;orthogonalLoop=1;jettySize=auto;html=1;entryX=0.5;entryY=1;entryDx=0;entryDy=0;" edge="1" parent="1" source="5tfjPZlzHDd08R5v4Q2B-24" target="5tfjPZlzHDd08R5v4Q2B-17">
          <mxGeometry relative="1" as="geometry" />
        </mxCell>
        <mxCell id="5tfjPZlzHDd08R5v4Q2B-23" value="&amp;lt;&amp;lt;include&amp;gt;&amp;gt;" style="edgeLabel;html=1;align=center;verticalAlign=middle;resizable=0;points=[];" vertex="1" connectable="0" parent="5tfjPZlzHDd08R5v4Q2B-22">
          <mxGeometry x="0.03" y="-1" relative="1" as="geometry">
            <mxPoint as="offset" />
          </mxGeometry>
        </mxCell>
        <mxCell id="5tfjPZlzHDd08R5v4Q2B-24" value="Manter Lista de Treino" style="ellipse;whiteSpace=wrap;html=1;" vertex="1" parent="1">
          <mxGeometry x="-415" y="-260" width="120" height="80" as="geometry" />
        </mxCell>
        <mxCell id="5tfjPZlzHDd08R5v4Q2B-25" value="Visualizar Exercícios" style="ellipse;whiteSpace=wrap;html=1;" vertex="1" parent="1">
          <mxGeometry x="-415" y="-710" width="120" height="80" as="geometry" />
        </mxCell>
      </root>
    </mxGraphModel>
  </diagram>
</mxfile>
